<svg width="97" height="97" viewBox="0 0 97 97" fill="none" xmlns="http://www.w3.org/2000/svg">
<path d="M97 0H0V97H97V0Z" fill="white"/>
<path d="M7.18512 3.59277H3.59253V7.18537H7.18512V3.59277Z" fill="black"/>
<path d="M10.7779 3.59277H7.1853V7.18537H10.7779V3.59277Z" fill="black"/>
<path d="M14.3704 3.59277H10.7778V7.18537H14.3704V3.59277Z" fill="black"/>
<path d="M17.963 3.59277H14.3704V7.18537H17.963V3.59277Z" fill="black"/>
<path d="M21.5555 3.59277H17.9629V7.18537H21.5555V3.59277Z" fill="black"/>
<path d="M25.1483 3.59277H21.5557V7.18537H25.1483V3.59277Z" fill="black"/>
<path d="M28.7408 3.59277H25.1482V7.18537H28.7408V3.59277Z" fill="black"/>
<path d="M39.5186 3.59277H35.926V7.18537H39.5186V3.59277Z" fill="black"/>
<path d="M57.4815 3.59277H53.8889V7.18537H57.4815V3.59277Z" fill="black"/>
<path d="M64.6666 3.59277H61.074V7.18537H64.6666V3.59277Z" fill="black"/>
<path d="M71.8519 3.59277H68.2593V7.18537H71.8519V3.59277Z" fill="black"/>
<path d="M75.4444 3.59277H71.8518V7.18537H75.4444V3.59277Z" fill="black"/>
<path d="M79.0369 3.59277H75.4443V7.18537H79.0369V3.59277Z" fill="black"/>
<path d="M82.6297 3.59277H79.0371V7.18537H82.6297V3.59277Z" fill="black"/>
<path d="M86.2222 3.59277H82.6296V7.18537H86.2222V3.59277Z" fill="black"/>
<path d="M89.8148 3.59277H86.2222V7.18537H89.8148V3.59277Z" fill="black"/>
<path d="M93.4073 3.59277H89.8147V7.18537H93.4073V3.59277Z" fill="black"/>
<path d="M7.18512 7.18506H3.59253V10.7777H7.18512V7.18506Z" fill="black"/>
<path d="M28.7408 7.18506H25.1482V10.7777H28.7408V7.18506Z" fill="black"/>
<path d="M39.5186 7.18506H35.926V10.7777H39.5186V7.18506Z" fill="black"/>
<path d="M53.889 7.18506H50.2964V10.7777H53.889V7.18506Z" fill="black"/>
<path d="M57.4815 7.18506H53.8889V10.7777H57.4815V7.18506Z" fill="black"/>
<path d="M64.6666 7.18506H61.074V10.7777H64.6666V7.18506Z" fill="black"/>
<path d="M71.8519 7.18506H68.2593V10.7777H71.8519V7.18506Z" fill="black"/>
<path d="M93.4073 7.18506H89.8147V10.7777H93.4073V7.18506Z" fill="black"/>
<path d="M7.18512 10.7778H3.59253V14.3704H7.18512V10.7778Z" fill="black"/>
<path d="M14.3704 10.7778H10.7778V14.3704H14.3704V10.7778Z" fill="black"/>
<path d="M17.963 10.7778H14.3704V14.3704H17.963V10.7778Z" fill="black"/>
<path d="M21.5555 10.7778H17.9629V14.3704H21.5555V10.7778Z" fill="black"/>
<path d="M28.7408 10.7778H25.1482V14.3704H28.7408V10.7778Z" fill="black"/>
<path d="M39.5186 10.7778H35.926V14.3704H39.5186V10.7778Z" fill="black"/>
<path d="M43.1111 10.7778H39.5186V14.3704H43.1111V10.7778Z" fill="black"/>
<path d="M46.7037 10.7778H43.1111V14.3704H46.7037V10.7778Z" fill="black"/>
<path d="M50.2962 10.7778H46.7036V14.3704H50.2962V10.7778Z" fill="black"/>
<path d="M57.4815 10.7778H53.8889V14.3704H57.4815V10.7778Z" fill="black"/>
<path d="M64.6666 10.7778H61.074V14.3704H64.6666V10.7778Z" fill="black"/>
<path d="M71.8519 10.7778H68.2593V14.3704H71.8519V10.7778Z" fill="black"/>
<path d="M79.0369 10.7778H75.4443V14.3704H79.0369V10.7778Z" fill="black"/>
<path d="M82.6297 10.7778H79.0371V14.3704H82.6297V10.7778Z" fill="black"/>
<path d="M86.2222 10.7778H82.6296V14.3704H86.2222V10.7778Z" fill="black"/>
<path d="M93.4073 10.7778H89.8147V14.3704H93.4073V10.7778Z" fill="black"/>
<path d="M7.18512 14.3706H3.59253V17.9632H7.18512V14.3706Z" fill="black"/>
<path d="M14.3704 14.3706H10.7778V17.9632H14.3704V14.3706Z" fill="black"/>
<path d="M17.963 14.3706H14.3704V17.9632H17.963V14.3706Z" fill="black"/>
<path d="M21.5555 14.3706H17.9629V17.9632H21.5555V14.3706Z" fill="black"/>
<path d="M28.7408 14.3706H25.1482V17.9632H28.7408V14.3706Z" fill="black"/>
<path d="M35.9258 14.3706H32.3333V17.9632H35.9258V14.3706Z" fill="black"/>
<path d="M43.1111 14.3706H39.5186V17.9632H43.1111V14.3706Z" fill="black"/>
<path d="M53.889 14.3706H50.2964V17.9632H53.889V14.3706Z" fill="black"/>
<path d="M61.074 14.3706H57.4814V17.9632H61.074V14.3706Z" fill="black"/>
<path d="M64.6666 14.3706H61.074V17.9632H64.6666V14.3706Z" fill="black"/>
<path d="M71.8519 14.3706H68.2593V17.9632H71.8519V14.3706Z" fill="black"/>
<path d="M79.0369 14.3706H75.4443V17.9632H79.0369V14.3706Z" fill="black"/>
<path d="M82.6297 14.3706H79.0371V17.9632H82.6297V14.3706Z" fill="black"/>
<path d="M86.2222 14.3706H82.6296V17.9632H86.2222V14.3706Z" fill="black"/>
<path d="M93.4073 14.3706H89.8147V17.9632H93.4073V14.3706Z" fill="black"/>
<path d="M7.18512 17.9629H3.59253V21.5555H7.18512V17.9629Z" fill="black"/>
<path d="M14.3704 17.9629H10.7778V21.5555H14.3704V17.9629Z" fill="black"/>
<path d="M17.963 17.9629H14.3704V21.5555H17.963V17.9629Z" fill="black"/>
<path d="M21.5555 17.9629H17.9629V21.5555H21.5555V17.9629Z" fill="black"/>
<path d="M28.7408 17.9629H25.1482V21.5555H28.7408V17.9629Z" fill="black"/>
<path d="M35.9258 17.9629H32.3333V21.5555H35.9258V17.9629Z" fill="black"/>
<path d="M46.7037 17.9629H43.1111V21.5555H46.7037V17.9629Z" fill="black"/>
<path d="M64.6666 17.9629H61.074V21.5555H64.6666V17.9629Z" fill="black"/>
<path d="M71.8519 17.9629H68.2593V21.5555H71.8519V17.9629Z" fill="black"/>
<path d="M79.0369 17.9629H75.4443V21.5555H79.0369V17.9629Z" fill="black"/>
<path d="M82.6297 17.9629H79.0371V21.5555H82.6297V17.9629Z" fill="black"/>
<path d="M86.2222 17.9629H82.6296V21.5555H86.2222V17.9629Z" fill="black"/>
<path d="M93.4073 17.9629H89.8147V21.5555H93.4073V17.9629Z" fill="black"/>
<path d="M7.18512 21.5557H3.59253V25.1483H7.18512V21.5557Z" fill="black"/>
<path d="M28.7408 21.5557H25.1482V25.1483H28.7408V21.5557Z" fill="black"/>
<path d="M39.5186 21.5557H35.926V25.1483H39.5186V21.5557Z" fill="black"/>
<path d="M43.1111 21.5557H39.5186V25.1483H43.1111V21.5557Z" fill="black"/>
<path d="M71.8519 21.5557H68.2593V25.1483H71.8519V21.5557Z" fill="black"/>
<path d="M93.4073 21.5557H89.8147V25.1483H93.4073V21.5557Z" fill="black"/>
<path d="M7.18512 25.1479H3.59253V28.7405H7.18512V25.1479Z" fill="black"/>
<path d="M10.7779 25.1479H7.1853V28.7405H10.7779V25.1479Z" fill="black"/>
<path d="M14.3704 25.1479H10.7778V28.7405H14.3704V25.1479Z" fill="black"/>
<path d="M17.963 25.1479H14.3704V28.7405H17.963V25.1479Z" fill="black"/>
<path d="M21.5555 25.1479H17.9629V28.7405H21.5555V25.1479Z" fill="black"/>
<path d="M25.1483 25.1479H21.5557V28.7405H25.1483V25.1479Z" fill="black"/>
<path d="M28.7408 25.1479H25.1482V28.7405H28.7408V25.1479Z" fill="black"/>
<path d="M35.9258 25.1479H32.3333V28.7405H35.9258V25.1479Z" fill="black"/>
<path d="M43.1111 25.1479H39.5186V28.7405H43.1111V25.1479Z" fill="black"/>
<path d="M50.2962 25.1479H46.7036V28.7405H50.2962V25.1479Z" fill="black"/>
<path d="M57.4815 25.1479H53.8889V28.7405H57.4815V25.1479Z" fill="black"/>
<path d="M64.6666 25.1479H61.074V28.7405H64.6666V25.1479Z" fill="black"/>
<path d="M71.8519 25.1479H68.2593V28.7405H71.8519V25.1479Z" fill="black"/>
<path d="M75.4444 25.1479H71.8518V28.7405H75.4444V25.1479Z" fill="black"/>
<path d="M79.0369 25.1479H75.4443V28.7405H79.0369V25.1479Z" fill="black"/>
<path d="M82.6297 25.1479H79.0371V28.7405H82.6297V25.1479Z" fill="black"/>
<path d="M86.2222 25.1479H82.6296V28.7405H86.2222V25.1479Z" fill="black"/>
<path d="M89.8148 25.1479H86.2222V28.7405H89.8148V25.1479Z" fill="black"/>
<path d="M93.4073 25.1479H89.8147V28.7405H93.4073V25.1479Z" fill="black"/>
<path d="M39.5186 28.7407H35.926V32.3333H39.5186V28.7407Z" fill="black"/>
<path d="M57.4815 28.7407H53.8889V32.3333H57.4815V28.7407Z" fill="black"/>
<path d="M64.6666 28.7407H61.074V32.3333H64.6666V28.7407Z" fill="black"/>
<path d="M7.18512 32.3335H3.59253V35.9261H7.18512V32.3335Z" fill="black"/>
<path d="M10.7779 32.3335H7.1853V35.9261H10.7779V32.3335Z" fill="black"/>
<path d="M25.1483 32.3335H21.5557V35.9261H25.1483V32.3335Z" fill="black"/>
<path d="M28.7408 32.3335H25.1482V35.9261H28.7408V32.3335Z" fill="black"/>
<path d="M32.3333 32.3335H28.7407V35.9261H32.3333V32.3335Z" fill="black"/>
<path d="M39.5186 32.3335H35.926V35.9261H39.5186V32.3335Z" fill="black"/>
<path d="M43.1111 32.3335H39.5186V35.9261H43.1111V32.3335Z" fill="black"/>
<path d="M50.2962 32.3335H46.7036V35.9261H50.2962V32.3335Z" fill="black"/>
<path d="M53.889 32.3335H50.2964V35.9261H53.889V32.3335Z" fill="black"/>
<path d="M57.4815 32.3335H53.8889V35.9261H57.4815V32.3335Z" fill="black"/>
<path d="M61.074 32.3335H57.4814V35.9261H61.074V32.3335Z" fill="black"/>
<path d="M64.6666 32.3335H61.074V35.9261H64.6666V32.3335Z" fill="black"/>
<path d="M79.0369 32.3335H75.4443V35.9261H79.0369V32.3335Z" fill="black"/>
<path d="M82.6297 32.3335H79.0371V35.9261H82.6297V32.3335Z" fill="black"/>
<path d="M10.7779 35.9258H7.1853V39.5184H10.7779V35.9258Z" fill="black"/>
<path d="M17.963 35.9258H14.3704V39.5184H17.963V35.9258Z" fill="black"/>
<path d="M21.5555 35.9258H17.9629V39.5184H21.5555V35.9258Z" fill="black"/>
<path d="M32.3333 35.9258H28.7407V39.5184H32.3333V35.9258Z" fill="black"/>
<path d="M43.1111 35.9258H39.5186V39.5184H43.1111V35.9258Z" fill="black"/>
<path d="M46.7037 35.9258H43.1111V39.5184H46.7037V35.9258Z" fill="black"/>
<path d="M53.889 35.9258H50.2964V39.5184H53.889V35.9258Z" fill="black"/>
<path d="M57.4815 35.9258H53.8889V39.5184H57.4815V35.9258Z" fill="black"/>
<path d="M61.074 35.9258H57.4814V39.5184H61.074V35.9258Z" fill="black"/>
<path d="M75.4444 35.9258H71.8518V39.5184H75.4444V35.9258Z" fill="black"/>
<path d="M79.0369 35.9258H75.4443V39.5184H79.0369V35.9258Z" fill="black"/>
<path d="M82.6297 35.9258H79.0371V39.5184H82.6297V35.9258Z" fill="black"/>
<path d="M86.2222 35.9258H82.6296V39.5184H86.2222V35.9258Z" fill="black"/>
<path d="M89.8148 35.9258H86.2222V39.5184H89.8148V35.9258Z" fill="black"/>
<path d="M14.3704 39.5186H10.7778V43.1111H14.3704V39.5186Z" fill="black"/>
<path d="M17.963 39.5186H14.3704V43.1111H17.963V39.5186Z" fill="black"/>
<path d="M21.5555 39.5186H17.9629V43.1111H21.5555V39.5186Z" fill="black"/>
<path d="M28.7408 39.5186H25.1482V43.1111H28.7408V39.5186Z" fill="black"/>
<path d="M32.3333 39.5186H28.7407V43.1111H32.3333V39.5186Z" fill="black"/>
<path d="M39.5186 39.5186H35.926V43.1111H39.5186V39.5186Z" fill="black"/>
<path d="M50.2962 39.5186H46.7036V43.1111H50.2962V39.5186Z" fill="black"/>
<path d="M57.4815 39.5186H53.8889V43.1111H57.4815V39.5186Z" fill="black"/>
<path d="M61.074 39.5186H57.4814V43.1111H61.074V39.5186Z" fill="black"/>
<path d="M68.2593 39.5186H64.6667V43.1111H68.2593V39.5186Z" fill="black"/>
<path d="M71.8519 39.5186H68.2593V43.1111H71.8519V39.5186Z" fill="black"/>
<path d="M79.0369 39.5186H75.4443V43.1111H79.0369V39.5186Z" fill="black"/>
<path d="M82.6297 39.5186H79.0371V43.1111H82.6297V39.5186Z" fill="black"/>
<path d="M89.8148 39.5186H86.2222V43.1111H89.8148V39.5186Z" fill="black"/>
<path d="M93.4073 39.5186H89.8147V43.1111H93.4073V39.5186Z" fill="black"/>
<path d="M7.18512 43.1113H3.59253V46.7039H7.18512V43.1113Z" fill="black"/>
<path d="M14.3704 43.1113H10.7778V46.7039H14.3704V43.1113Z" fill="black"/>
<path d="M17.963 43.1113H14.3704V46.7039H17.963V43.1113Z" fill="black"/>
<path d="M25.1483 43.1113H21.5557V46.7039H25.1483V43.1113Z" fill="black"/>
<path d="M32.3333 43.1113H28.7407V46.7039H32.3333V43.1113Z" fill="black"/>
<path d="M35.9258 43.1113H32.3333V46.7039H35.9258V43.1113Z" fill="black"/>
<path d="M43.1111 43.1113H39.5186V46.7039H43.1111V43.1113Z" fill="black"/>
<path d="M46.7037 43.1113H43.1111V46.7039H46.7037V43.1113Z" fill="black"/>
<path d="M57.4815 43.1113H53.8889V46.7039H57.4815V43.1113Z" fill="black"/>
<path d="M61.074 43.1113H57.4814V46.7039H61.074V43.1113Z" fill="black"/>
<path d="M64.6666 43.1113H61.074V46.7039H64.6666V43.1113Z" fill="black"/>
<path d="M68.2593 43.1113H64.6667V46.7039H68.2593V43.1113Z" fill="black"/>
<path d="M71.8519 43.1113H68.2593V46.7039H71.8519V43.1113Z" fill="black"/>
<path d="M75.4444 43.1113H71.8518V46.7039H75.4444V43.1113Z" fill="black"/>
<path d="M79.0369 43.1113H75.4443V46.7039H79.0369V43.1113Z" fill="black"/>
<path d="M82.6297 43.1113H79.0371V46.7039H82.6297V43.1113Z" fill="black"/>
<path d="M93.4073 43.1113H89.8147V46.7039H93.4073V43.1113Z" fill="black"/>
<path d="M7.18512 46.7036H3.59253V50.2962H7.18512V46.7036Z" fill="black"/>
<path d="M21.5555 46.7036H17.9629V50.2962H21.5555V46.7036Z" fill="black"/>
<path d="M28.7408 46.7036H25.1482V50.2962H28.7408V46.7036Z" fill="black"/>
<path d="M39.5186 46.7036H35.926V50.2962H39.5186V46.7036Z" fill="black"/>
<path d="M43.1111 46.7036H39.5186V50.2962H43.1111V46.7036Z" fill="black"/>
<path d="M50.2962 46.7036H46.7036V50.2962H50.2962V46.7036Z" fill="black"/>
<path d="M64.6666 46.7036H61.074V50.2962H64.6666V46.7036Z" fill="black"/>
<path d="M71.8519 46.7036H68.2593V50.2962H71.8519V46.7036Z" fill="black"/>
<path d="M75.4444 46.7036H71.8518V50.2962H75.4444V46.7036Z" fill="black"/>
<path d="M93.4073 46.7036H89.8147V50.2962H93.4073V46.7036Z" fill="black"/>
<path d="M7.18512 50.2964H3.59253V53.889H7.18512V50.2964Z" fill="black"/>
<path d="M21.5555 50.2964H17.9629V53.889H21.5555V50.2964Z" fill="black"/>
<path d="M25.1483 50.2964H21.5557V53.889H25.1483V50.2964Z" fill="black"/>
<path d="M32.3333 50.2964H28.7407V53.889H32.3333V50.2964Z" fill="black"/>
<path d="M35.9258 50.2964H32.3333V53.889H35.9258V50.2964Z" fill="black"/>
<path d="M43.1111 50.2964H39.5186V53.889H43.1111V50.2964Z" fill="black"/>
<path d="M46.7037 50.2964H43.1111V53.889H46.7037V50.2964Z" fill="black"/>
<path d="M53.889 50.2964H50.2964V53.889H53.889V50.2964Z" fill="black"/>
<path d="M57.4815 50.2964H53.8889V53.889H57.4815V50.2964Z" fill="black"/>
<path d="M61.074 50.2964H57.4814V53.889H61.074V50.2964Z" fill="black"/>
<path d="M75.4444 50.2964H71.8518V53.889H75.4444V50.2964Z" fill="black"/>
<path d="M89.8148 50.2964H86.2222V53.889H89.8148V50.2964Z" fill="black"/>
<path d="M7.18512 53.8887H3.59253V57.4813H7.18512V53.8887Z" fill="black"/>
<path d="M17.963 53.8887H14.3704V57.4813H17.963V53.8887Z" fill="black"/>
<path d="M28.7408 53.8887H25.1482V57.4813H28.7408V53.8887Z" fill="black"/>
<path d="M32.3333 53.8887H28.7407V57.4813H32.3333V53.8887Z" fill="black"/>
<path d="M43.1111 53.8887H39.5186V57.4813H43.1111V53.8887Z" fill="black"/>
<path d="M53.889 53.8887H50.2964V57.4813H53.889V53.8887Z" fill="black"/>
<path d="M61.074 53.8887H57.4814V57.4813H61.074V53.8887Z" fill="black"/>
<path d="M64.6666 53.8887H61.074V57.4813H64.6666V53.8887Z" fill="black"/>
<path d="M68.2593 53.8887H64.6667V57.4813H68.2593V53.8887Z" fill="black"/>
<path d="M75.4444 53.8887H71.8518V57.4813H75.4444V53.8887Z" fill="black"/>
<path d="M79.0369 53.8887H75.4443V57.4813H79.0369V53.8887Z" fill="black"/>
<path d="M82.6297 53.8887H79.0371V57.4813H82.6297V53.8887Z" fill="black"/>
<path d="M89.8148 53.8887H86.2222V57.4813H89.8148V53.8887Z" fill="black"/>
<path d="M93.4073 53.8887H89.8147V57.4813H93.4073V53.8887Z" fill="black"/>
<path d="M7.18512 57.4814H3.59253V61.074H7.18512V57.4814Z" fill="black"/>
<path d="M14.3704 57.4814H10.7778V61.074H14.3704V57.4814Z" fill="black"/>
<path d="M32.3333 57.4814H28.7407V61.074H32.3333V57.4814Z" fill="black"/>
<path d="M35.9258 57.4814H32.3333V61.074H35.9258V57.4814Z" fill="black"/>
<path d="M43.1111 57.4814H39.5186V61.074H43.1111V57.4814Z" fill="black"/>
<path d="M50.2962 57.4814H46.7036V61.074H50.2962V57.4814Z" fill="black"/>
<path d="M57.4815 57.4814H53.8889V61.074H57.4815V57.4814Z" fill="black"/>
<path d="M61.074 57.4814H57.4814V61.074H61.074V57.4814Z" fill="black"/>
<path d="M64.6666 57.4814H61.074V61.074H64.6666V57.4814Z" fill="black"/>
<path d="M71.8519 57.4814H68.2593V61.074H71.8519V57.4814Z" fill="black"/>
<path d="M75.4444 57.4814H71.8518V61.074H75.4444V57.4814Z" fill="black"/>
<path d="M86.2222 57.4814H82.6296V61.074H86.2222V57.4814Z" fill="black"/>
<path d="M93.4073 57.4814H89.8147V61.074H93.4073V57.4814Z" fill="black"/>
<path d="M7.18512 61.0742H3.59253V64.6668H7.18512V61.0742Z" fill="black"/>
<path d="M14.3704 61.0742H10.7778V64.6668H14.3704V61.0742Z" fill="black"/>
<path d="M25.1483 61.0742H21.5557V64.6668H25.1483V61.0742Z" fill="black"/>
<path d="M28.7408 61.0742H25.1482V64.6668H28.7408V61.0742Z" fill="black"/>
<path d="M35.9258 61.0742H32.3333V64.6668H35.9258V61.0742Z" fill="black"/>
<path d="M39.5186 61.0742H35.926V64.6668H39.5186V61.0742Z" fill="black"/>
<path d="M43.1111 61.0742H39.5186V64.6668H43.1111V61.0742Z" fill="black"/>
<path d="M46.7037 61.0742H43.1111V64.6668H46.7037V61.0742Z" fill="black"/>
<path d="M50.2962 61.0742H46.7036V64.6668H50.2962V61.0742Z" fill="black"/>
<path d="M53.889 61.0742H50.2964V64.6668H53.889V61.0742Z" fill="black"/>
<path d="M57.4815 61.0742H53.8889V64.6668H57.4815V61.0742Z" fill="black"/>
<path d="M64.6666 61.0742H61.074V64.6668H64.6666V61.0742Z" fill="black"/>
<path d="M68.2593 61.0742H64.6667V64.6668H68.2593V61.0742Z" fill="black"/>
<path d="M71.8519 61.0742H68.2593V64.6668H71.8519V61.0742Z" fill="black"/>
<path d="M75.4444 61.0742H71.8518V64.6668H75.4444V61.0742Z" fill="black"/>
<path d="M79.0369 61.0742H75.4443V64.6668H79.0369V61.0742Z" fill="black"/>
<path d="M86.2222 61.0742H82.6296V64.6668H86.2222V61.0742Z" fill="black"/>
<path d="M35.9258 64.6665H32.3333V68.2591H35.9258V64.6665Z" fill="black"/>
<path d="M39.5186 64.6665H35.926V68.2591H39.5186V64.6665Z" fill="black"/>
<path d="M43.1111 64.6665H39.5186V68.2591H43.1111V64.6665Z" fill="black"/>
<path d="M46.7037 64.6665H43.1111V68.2591H46.7037V64.6665Z" fill="black"/>
<path d="M53.889 64.6665H50.2964V68.2591H53.889V64.6665Z" fill="black"/>
<path d="M64.6666 64.6665H61.074V68.2591H64.6666V64.6665Z" fill="black"/>
<path d="M79.0369 64.6665H75.4443V68.2591H79.0369V64.6665Z" fill="black"/>
<path d="M86.2222 64.6665H82.6296V68.2591H86.2222V64.6665Z" fill="black"/>
<path d="M7.18512 68.2593H3.59253V71.8519H7.18512V68.2593Z" fill="black"/>
<path d="M10.7779 68.2593H7.1853V71.8519H10.7779V68.2593Z" fill="black"/>
<path d="M14.3704 68.2593H10.7778V71.8519H14.3704V68.2593Z" fill="black"/>
<path d="M17.963 68.2593H14.3704V71.8519H17.963V68.2593Z" fill="black"/>
<path d="M21.5555 68.2593H17.9629V71.8519H21.5555V68.2593Z" fill="black"/>
<path d="M25.1483 68.2593H21.5557V71.8519H25.1483V68.2593Z" fill="black"/>
<path d="M28.7408 68.2593H25.1482V71.8519H28.7408V68.2593Z" fill="black"/>
<path d="M35.9258 68.2593H32.3333V71.8519H35.9258V68.2593Z" fill="black"/>
<path d="M39.5186 68.2593H35.926V71.8519H39.5186V68.2593Z" fill="black"/>
<path d="M46.7037 68.2593H43.1111V71.8519H46.7037V68.2593Z" fill="black"/>
<path d="M64.6666 68.2593H61.074V71.8519H64.6666V68.2593Z" fill="black"/>
<path d="M71.8519 68.2593H68.2593V71.8519H71.8519V68.2593Z" fill="black"/>
<path d="M79.0369 68.2593H75.4443V71.8519H79.0369V68.2593Z" fill="black"/>
<path d="M82.6297 68.2593H79.0371V71.8519H82.6297V68.2593Z" fill="black"/>
<path d="M93.4073 68.2593H89.8147V71.8519H93.4073V68.2593Z" fill="black"/>
<path d="M7.18512 71.8521H3.59253V75.4446H7.18512V71.8521Z" fill="black"/>
<path d="M28.7408 71.8521H25.1482V75.4446H28.7408V71.8521Z" fill="black"/>
<path d="M35.9258 71.8521H32.3333V75.4446H35.9258V71.8521Z" fill="black"/>
<path d="M39.5186 71.8521H35.926V75.4446H39.5186V71.8521Z" fill="black"/>
<path d="M46.7037 71.8521H43.1111V75.4446H46.7037V71.8521Z" fill="black"/>
<path d="M50.2962 71.8521H46.7036V75.4446H50.2962V71.8521Z" fill="black"/>
<path d="M61.074 71.8521H57.4814V75.4446H61.074V71.8521Z" fill="black"/>
<path d="M64.6666 71.8521H61.074V75.4446H64.6666V71.8521Z" fill="black"/>
<path d="M79.0369 71.8521H75.4443V75.4446H79.0369V71.8521Z" fill="black"/>
<path d="M7.18512 75.4443H3.59253V79.0369H7.18512V75.4443Z" fill="black"/>
<path d="M14.3704 75.4443H10.7778V79.0369H14.3704V75.4443Z" fill="black"/>
<path d="M17.963 75.4443H14.3704V79.0369H17.963V75.4443Z" fill="black"/>
<path d="M21.5555 75.4443H17.9629V79.0369H21.5555V75.4443Z" fill="black"/>
<path d="M28.7408 75.4443H25.1482V79.0369H28.7408V75.4443Z" fill="black"/>
<path d="M39.5186 75.4443H35.926V79.0369H39.5186V75.4443Z" fill="black"/>
<path d="M43.1111 75.4443H39.5186V79.0369H43.1111V75.4443Z" fill="black"/>
<path d="M53.889 75.4443H50.2964V79.0369H53.889V75.4443Z" fill="black"/>
<path d="M57.4815 75.4443H53.8889V79.0369H57.4815V75.4443Z" fill="black"/>
<path d="M61.074 75.4443H57.4814V79.0369H61.074V75.4443Z" fill="black"/>
<path d="M64.6666 75.4443H61.074V79.0369H64.6666V75.4443Z" fill="black"/>
<path d="M68.2593 75.4443H64.6667V79.0369H68.2593V75.4443Z" fill="black"/>
<path d="M71.8519 75.4443H68.2593V79.0369H71.8519V75.4443Z" fill="black"/>
<path d="M75.4444 75.4443H71.8518V79.0369H75.4444V75.4443Z" fill="black"/>
<path d="M79.0369 75.4443H75.4443V79.0369H79.0369V75.4443Z" fill="black"/>
<path d="M82.6297 75.4443H79.0371V79.0369H82.6297V75.4443Z" fill="black"/>
<path d="M86.2222 75.4443H82.6296V79.0369H86.2222V75.4443Z" fill="black"/>
<path d="M89.8148 75.4443H86.2222V79.0369H89.8148V75.4443Z" fill="black"/>
<path d="M7.18512 79.0371H3.59253V82.6297H7.18512V79.0371Z" fill="black"/>
<path d="M14.3704 79.0371H10.7778V82.6297H14.3704V79.0371Z" fill="black"/>
<path d="M17.963 79.0371H14.3704V82.6297H17.963V79.0371Z" fill="black"/>
<path d="M21.5555 79.0371H17.9629V82.6297H21.5555V79.0371Z" fill="black"/>
<path d="M28.7408 79.0371H25.1482V82.6297H28.7408V79.0371Z" fill="black"/>
<path d="M46.7037 79.0371H43.1111V82.6297H46.7037V79.0371Z" fill="black"/>
<path d="M57.4815 79.0371H53.8889V82.6297H57.4815V79.0371Z" fill="black"/>
<path d="M68.2593 79.0371H64.6667V82.6297H68.2593V79.0371Z" fill="black"/>
<path d="M71.8519 79.0371H68.2593V82.6297H71.8519V79.0371Z" fill="black"/>
<path d="M82.6297 79.0371H79.0371V82.6297H82.6297V79.0371Z" fill="black"/>
<path d="M89.8148 79.0371H86.2222V82.6297H89.8148V79.0371Z" fill="black"/>
<path d="M93.4073 79.0371H89.8147V82.6297H93.4073V79.0371Z" fill="black"/>
<path d="M7.18512 82.6294H3.59253V86.222H7.18512V82.6294Z" fill="black"/>
<path d="M14.3704 82.6294H10.7778V86.222H14.3704V82.6294Z" fill="black"/>
<path d="M17.963 82.6294H14.3704V86.222H17.963V82.6294Z" fill="black"/>
<path d="M21.5555 82.6294H17.9629V86.222H21.5555V82.6294Z" fill="black"/>
<path d="M28.7408 82.6294H25.1482V86.222H28.7408V82.6294Z" fill="black"/>
<path d="M43.1111 82.6294H39.5186V86.222H43.1111V82.6294Z" fill="black"/>
<path d="M53.889 82.6294H50.2964V86.222H53.889V82.6294Z" fill="black"/>
<path d="M64.6666 82.6294H61.074V86.222H64.6666V82.6294Z" fill="black"/>
<path d="M75.4444 82.6294H71.8518V86.222H75.4444V82.6294Z" fill="black"/>
<path d="M86.2222 82.6294H82.6296V86.222H86.2222V82.6294Z" fill="black"/>
<path d="M93.4073 82.6294H89.8147V86.222H93.4073V82.6294Z" fill="black"/>
<path d="M7.18512 86.2222H3.59253V89.8148H7.18512V86.2222Z" fill="black"/>
<path d="M28.7408 86.2222H25.1482V89.8148H28.7408V86.2222Z" fill="black"/>
<path d="M35.9258 86.2222H32.3333V89.8148H35.9258V86.2222Z" fill="black"/>
<path d="M64.6666 86.2222H61.074V89.8148H64.6666V86.2222Z" fill="black"/>
<path d="M75.4444 86.2222H71.8518V89.8148H75.4444V86.2222Z" fill="black"/>
<path d="M79.0369 86.2222H75.4443V89.8148H79.0369V86.2222Z" fill="black"/>
<path d="M93.4073 86.2222H89.8147V89.8148H93.4073V86.2222Z" fill="black"/>
<path d="M7.18512 89.8149H3.59253V93.4075H7.18512V89.8149Z" fill="black"/>
<path d="M10.7779 89.8149H7.1853V93.4075H10.7779V89.8149Z" fill="black"/>
<path d="M14.3704 89.8149H10.7778V93.4075H14.3704V89.8149Z" fill="black"/>
<path d="M17.963 89.8149H14.3704V93.4075H17.963V89.8149Z" fill="black"/>
<path d="M21.5555 89.8149H17.9629V93.4075H21.5555V89.8149Z" fill="black"/>
<path d="M25.1483 89.8149H21.5557V93.4075H25.1483V89.8149Z" fill="black"/>
<path d="M28.7408 89.8149H25.1482V93.4075H28.7408V89.8149Z" fill="black"/>
<path d="M35.9258 89.8149H32.3333V93.4075H35.9258V89.8149Z" fill="black"/>
<path d="M43.1111 89.8149H39.5186V93.4075H43.1111V89.8149Z" fill="black"/>
<path d="M46.7037 89.8149H43.1111V93.4075H46.7037V89.8149Z" fill="black"/>
<path d="M64.6666 89.8149H61.074V93.4075H64.6666V89.8149Z" fill="black"/>
<path d="M71.8519 89.8149H68.2593V93.4075H71.8519V89.8149Z" fill="black"/>
<path d="M82.6297 89.8149H79.0371V93.4075H82.6297V89.8149Z" fill="black"/>
<path d="M93.4073 89.8149H89.8147V93.4075H93.4073V89.8149Z" fill="black"/>
<rect x="0.5" y="0.5" width="96" height="96" stroke="#BCC0C3"/>
</svg>
