<svg width="24" height="24" viewBox="0 0 24 24" fill="none" xmlns="http://www.w3.org/2000/svg">
<rect width="24" height="24" rx="12" fill="white"/>
<path d="M11.9987 5.33203C9.4187 5.33203 7.33203 7.4187 7.33203 9.9987C7.33203 13.4987 11.9987 18.6654 11.9987 18.6654C11.9987 18.6654 16.6654 13.4987 16.6654 9.9987C16.6654 7.4187 14.5787 5.33203 11.9987 5.33203ZM8.66536 9.9987C8.66536 8.1587 10.1587 6.66536 11.9987 6.66536C13.8387 6.66536 15.332 8.1587 15.332 9.9987C15.332 11.9187 13.412 14.792 11.9987 16.5854C10.612 14.8054 8.66536 11.8987 8.66536 9.9987Z" fill="#121224"/>
<path d="M11.9987 11.6654C12.9192 11.6654 13.6654 10.9192 13.6654 9.9987C13.6654 9.07822 12.9192 8.33203 11.9987 8.33203C11.0782 8.33203 10.332 9.07822 10.332 9.9987C10.332 10.9192 11.0782 11.6654 11.9987 11.6654Z" fill="#121224"/>
</svg>
