<svg width="24" height="24" viewBox="0 0 24 24" fill="none" xmlns="http://www.w3.org/2000/svg">
<rect width="24" height="24" rx="12" fill="white"/>
<path d="M13.332 9.33398H13.9987C14.1755 9.33398 14.3451 9.26375 14.4701 9.13872C14.5951 9.0137 14.6654 8.84413 14.6654 8.66732C14.6654 8.49051 14.5951 8.32094 14.4701 8.19591C14.3451 8.07089 14.1755 8.00065 13.9987 8.00065H13.332C13.1552 8.00065 12.9857 8.07089 12.8606 8.19591C12.7356 8.32094 12.6654 8.49051 12.6654 8.66732C12.6654 8.84413 12.7356 9.0137 12.8606 9.13872C12.9857 9.26375 13.1552 9.33398 13.332 9.33398ZM13.332 12.0007H13.9987C14.1755 12.0007 14.3451 11.9304 14.4701 11.8054C14.5951 11.6804 14.6654 11.5108 14.6654 11.334C14.6654 11.1572 14.5951 10.9876 14.4701 10.8626C14.3451 10.7376 14.1755 10.6673 13.9987 10.6673H13.332C13.1552 10.6673 12.9857 10.7376 12.8606 10.8626C12.7356 10.9876 12.6654 11.1572 12.6654 11.334C12.6654 11.5108 12.7356 11.6804 12.8606 11.8054C12.9857 11.9304 13.1552 12.0007 13.332 12.0007ZM9.9987 9.33398H10.6654C10.8422 9.33398 11.0117 9.26375 11.1368 9.13872C11.2618 9.0137 11.332 8.84413 11.332 8.66732C11.332 8.49051 11.2618 8.32094 11.1368 8.19591C11.0117 8.07089 10.8422 8.00065 10.6654 8.00065H9.9987C9.82189 8.00065 9.65232 8.07089 9.52729 8.19591C9.40227 8.32094 9.33203 8.49051 9.33203 8.66732C9.33203 8.84413 9.40227 9.0137 9.52729 9.13872C9.65232 9.26375 9.82189 9.33398 9.9987 9.33398ZM9.9987 12.0007H10.6654C10.8422 12.0007 11.0117 11.9304 11.1368 11.8054C11.2618 11.6804 11.332 11.5108 11.332 11.334C11.332 11.1572 11.2618 10.9876 11.1368 10.8626C11.0117 10.7376 10.8422 10.6673 10.6654 10.6673H9.9987C9.82189 10.6673 9.65232 10.7376 9.52729 10.8626C9.40227 10.9876 9.33203 11.1572 9.33203 11.334C9.33203 11.5108 9.40227 11.6804 9.52729 11.8054C9.65232 11.9304 9.82189 12.0007 9.9987 12.0007ZM17.9987 17.334H17.332V6.00065C17.332 5.82384 17.2618 5.65427 17.1368 5.52925C17.0117 5.40422 16.8422 5.33398 16.6654 5.33398H7.33203C7.15522 5.33398 6.98565 5.40422 6.86063 5.52925C6.7356 5.65427 6.66536 5.82384 6.66536 6.00065V17.334H5.9987C5.82189 17.334 5.65232 17.4042 5.52729 17.5292C5.40227 17.6543 5.33203 17.8238 5.33203 18.0007C5.33203 18.1775 5.40227 18.347 5.52729 18.4721C5.65232 18.5971 5.82189 18.6673 5.9987 18.6673H17.9987C18.1755 18.6673 18.3451 18.5971 18.4701 18.4721C18.5951 18.347 18.6654 18.1775 18.6654 18.0007C18.6654 17.8238 18.5951 17.6543 18.4701 17.5292C18.3451 17.4042 18.1755 17.334 17.9987 17.334ZM12.6654 17.334H11.332V14.6673H12.6654V17.334ZM15.9987 17.334H13.9987V14.0007C13.9987 13.8238 13.9285 13.6543 13.8034 13.5292C13.6784 13.4042 13.5088 13.334 13.332 13.334H10.6654C10.4886 13.334 10.319 13.4042 10.194 13.5292C10.0689 13.6543 9.9987 13.8238 9.9987 14.0007V17.334H7.9987V6.66732H15.9987V17.334Z" fill="#121224"/>
</svg>
