<svg width="24" height="24" viewBox="0 0 24 24" fill="none" xmlns="http://www.w3.org/2000/svg">
<rect width="24" height="24" rx="12" fill="white"/>
<path d="M8.11625 13.0193L8.11626 13.0044L8.10746 12.9916C8.08461 12.9584 8.06646 12.9215 8.05369 12.8822C8.04859 12.844 8.04877 12.8052 8.05425 12.7671L8.05565 12.7673L8.05455 12.7554C8.05195 12.7274 8.05195 12.6992 8.05455 12.6713L8.05458 12.6713L8.05469 12.6693C8.05861 12.5964 8.08149 12.5264 8.12031 12.4675L8.13066 12.4518L8.12809 12.4332C8.12361 12.4006 8.12327 12.3675 8.12707 12.3349C8.14132 12.3071 8.15731 12.2805 8.17493 12.2552L8.17515 12.2554L8.17763 12.2509C8.19788 12.2144 8.22272 12.1814 8.25134 12.1527L8.32054 12.1089L8.32072 12.1092L8.32525 12.1055C8.35535 12.0812 8.38852 12.062 8.4236 12.0485C8.45736 12.0433 8.49164 12.0436 8.52535 12.0493L8.52503 12.0512L8.53909 12.0497C8.56412 12.047 8.58933 12.047 8.61436 12.0497L8.61433 12.05H8.61978L10.8031 12.05L10.8033 12.05C11.3326 12.0477 11.8429 11.8393 12.2412 11.4638C12.6394 11.0884 12.8993 10.5712 12.9745 10.0066L12.982 9.94999H12.9249H8.61978C8.47129 9.94999 8.32797 9.88608 8.22164 9.77082C8.11519 9.65543 8.05476 9.49812 8.05476 9.33332C8.05476 9.16853 8.11519 9.01122 8.22164 8.89582C8.32797 8.78056 8.47129 8.71666 8.61978 8.71666H12.7097H12.7861L12.7555 8.64661C12.5779 8.24077 12.2977 7.89708 11.9469 7.65563C11.5961 7.41415 11.1889 7.28491 10.7725 7.28333H10.7723H8.61978C8.47129 7.28333 8.32797 7.21942 8.22164 7.10416C8.11519 6.98877 8.05476 6.83146 8.05476 6.66666C8.05476 6.50187 8.11519 6.34456 8.22164 6.22916C8.32797 6.11391 8.47129 6.05 8.61978 6.05H15.385C15.5335 6.05 15.6768 6.11391 15.7831 6.22916C15.8896 6.34456 15.95 6.50187 15.95 6.66666C15.95 6.83146 15.8896 6.98877 15.7831 7.10416C15.6768 7.21942 15.5335 7.28333 15.385 7.28333H13.4108H13.3124L13.3704 7.36278C13.6536 7.75138 13.8603 8.19922 13.9772 8.67851L13.9865 8.71666H14.0258H15.385C15.5335 8.71666 15.6768 8.78056 15.7831 8.89582C15.8896 9.01122 15.95 9.16853 15.95 9.33332C15.95 9.49812 15.8896 9.65543 15.7831 9.77082C15.6768 9.88608 15.5335 9.94999 15.385 9.94999H14.1549H14.109L14.1051 9.99579C14.0291 10.898 13.644 11.7358 13.0266 12.3442C12.4094 12.9524 11.6051 13.287 10.7726 13.2833H10.7723H9.96052H9.85829L9.92105 13.364L12.6948 16.9307L12.695 16.9309C12.793 17.0552 12.842 17.2173 12.8302 17.3816C12.8183 17.5458 12.7468 17.6974 12.6326 17.8033C12.5185 17.909 12.3713 17.9607 12.2232 17.9482C12.0751 17.9356 11.9366 17.8598 11.8387 17.7357L11.8386 17.7356L8.14853 13.069L8.14309 13.0621L8.13564 13.0575C8.12747 13.0524 8.12235 13.0443 8.11922 13.0346C8.1177 13.0299 8.11693 13.0256 8.11655 13.0226L8.11627 13.0195C8.11626 13.0195 8.11626 13.0194 8.11626 13.0194M8.11625 13.0193C8.11625 13.0192 8.11626 13.0193 8.11626 13.0194M8.11625 13.0193L8.11626 13.0195L8.11626 13.0197L8.11626 13.0198L8.11626 13.0199L8.11626 13.0199M8.11625 13.0193L8.11626 13.0194M8.11626 13.0194L8.11626 13.0199M8.11626 13.0199L8.11626 13.02H8.06626L8.11626 13.0199ZM10.0239 13.3333L9.99999 13.3026L9.96052 13.3333V13.3833H9.9994L12.7343 16.9C12.8403 17.0343 12.8927 17.2089 12.88 17.3852C12.8673 17.5614 12.7906 17.725 12.6666 17.84C12.5426 17.9549 12.3816 18.0117 12.219 17.998C12.0564 17.9842 11.9054 17.901 11.7994 17.7666L10.0239 13.3333ZM10.0239 13.3333H10.7723H10.0239Z" fill="#121224" stroke="white" stroke-width="0.1"/>
</svg>
