<svg width="32" height="32" viewBox="0 0 32 32" fill="none" xmlns="http://www.w3.org/2000/svg">
<g clip-path="url(#clip0_1142_21396)">
<path d="M16 32C24.8366 32 32 24.8366 32 16C32 7.16344 24.8366 0 16 0C7.16344 0 0 7.16344 0 16C0 24.8366 7.16344 32 16 32Z" fill="#FFD068"/>
<path d="M31.9999 15.9999C31.9999 24.8399 24.8349 31.9999 15.9999 31.9999C10.9699 31.9999 6.47992 29.6799 3.54492 26.0449C6.28992 28.2649 9.78492 29.5899 13.5899 29.5899C22.4249 29.5899 29.5899 22.4299 29.5899 13.5899C29.5899 9.78492 28.2649 6.28992 26.0449 3.54492C29.6749 6.47992 31.9999 10.9699 31.9999 15.9999Z" fill="#FAC550"/>
<path d="M23.1608 21.5243C23.1608 22.0053 22.7718 22.3943 22.2908 22.3943H9.70984C9.23384 22.3943 8.83984 22.0053 8.83984 21.5243C8.83984 21.0433 9.23384 20.6543 9.70984 20.6543H22.2908C22.7728 20.6553 23.1608 21.0433 23.1608 21.5243Z" fill="#885645"/>
<path d="M10.9074 15.3266C12.2241 15.3266 13.2914 14.2592 13.2914 12.9426C13.2914 11.6259 12.2241 10.5586 10.9074 10.5586C9.59079 10.5586 8.52344 11.6259 8.52344 12.9426C8.52344 14.2592 9.59079 15.3266 10.9074 15.3266Z" fill="#885645"/>
<path d="M12.241 11.7271C12.0346 11.4497 11.7218 11.3331 11.5423 11.4666C11.3629 11.6002 11.3847 11.9333 11.5911 12.2107C11.7975 12.488 12.1103 12.6046 12.2898 12.4711C12.4692 12.3376 12.4474 12.0045 12.241 11.7271Z" fill="#B7755F"/>
<path d="M21.0891 15.3266C22.4057 15.3266 23.4731 14.2592 23.4731 12.9426C23.4731 11.6259 22.4057 10.5586 21.0891 10.5586C19.7724 10.5586 18.7051 11.6259 18.7051 12.9426C18.7051 14.2592 19.7724 15.3266 21.0891 15.3266Z" fill="#885645"/>
<path d="M22.4245 11.7301C22.2181 11.4527 21.9053 11.3361 21.7259 11.4697C21.5465 11.6032 21.5683 11.9363 21.7747 12.2136C21.9811 12.491 22.2939 12.6076 22.4733 12.474C22.6528 12.3405 22.6309 12.0074 22.4245 11.7301Z" fill="#B7755F"/>
</g>
<defs>
<clipPath id="clip0_1142_21396">
<rect width="32" height="32" fill="white"/>
</clipPath>
</defs>
</svg>
