<svg width="32" height="32" viewBox="0 0 32 32" fill="none" xmlns="http://www.w3.org/2000/svg">
<g clip-path="url(#clip0_1142_21376)">
<path d="M16 32C24.8366 32 32 24.8366 32 16C32 7.16344 24.8366 0 16 0C7.16344 0 0 7.16344 0 16C0 24.8366 7.16344 32 16 32Z" fill="#FFD068"/>
<path d="M16.0008 26.5359C11.7028 26.5359 7.9258 23.7819 6.6028 19.6829C6.4758 19.2889 6.6918 18.8659 7.0858 18.7389C7.4818 18.6109 7.9028 18.8279 8.0298 19.2219C9.1528 22.6989 12.3558 25.0359 16.0008 25.0359C19.6458 25.0359 22.8488 22.6999 23.9718 19.2219C24.0988 18.8279 24.5198 18.6109 24.9158 18.7389C25.3098 18.8659 25.5258 19.2889 25.3988 19.6829C24.0758 23.7819 20.2988 26.5359 16.0008 26.5359Z" fill="#885645"/>
<path d="M31.9999 15.9989C31.9999 24.8389 24.8349 31.9989 15.9999 31.9989C10.9699 31.9989 6.47992 29.6789 3.54492 26.0439C6.28992 28.2639 9.78492 29.5889 13.5899 29.5889C22.4249 29.5889 29.5899 22.4289 29.5899 13.5889C29.5899 9.78394 28.2649 6.28894 26.0449 3.54395C29.6749 6.47894 31.9999 10.9689 31.9999 15.9989Z" fill="#FAC550"/>
<path d="M13.3404 13.3867C12.5884 12.3607 11.2324 11.6787 9.68639 11.6787C8.13339 11.6857 6.77739 12.3677 6.02539 13.3937C6.06039 11.4047 7.68439 9.80273 9.68639 9.80273C11.6744 9.80273 13.3054 11.3977 13.3404 13.3867Z" fill="#885645"/>
<path d="M25.9771 13.3877C25.2251 12.3617 23.8691 11.6797 22.3231 11.6797C20.7701 11.6867 19.4141 12.3687 18.6621 13.3947C18.6971 11.4057 20.3211 9.80371 22.3231 9.80371C24.3121 9.80371 25.9421 11.3987 25.9771 13.3877Z" fill="#885645"/>
</g>
<defs>
<clipPath id="clip0_1142_21376">
<rect width="32" height="32" fill="white"/>
</clipPath>
</defs>
</svg>
