<svg width="32" height="32" viewBox="0 0 32 32" fill="none" xmlns="http://www.w3.org/2000/svg">
<g clip-path="url(#clip0_1142_21385)">
<path d="M16 32C24.8366 32 32 24.8366 32 16C32 7.16344 24.8366 0 16 0C7.16344 0 0 7.16344 0 16C0 24.8366 7.16344 32 16 32Z" fill="#FFD068"/>
<path d="M31.9999 15.9999C31.9999 24.8399 24.8349 31.9999 15.9999 31.9999C10.9699 31.9999 6.47992 29.6799 3.54492 26.0449C6.28992 28.2649 9.78492 29.5899 13.5899 29.5899C22.4249 29.5899 29.5899 22.4299 29.5899 13.5899C29.5899 9.78492 28.2649 6.28992 26.0449 3.54492C29.6749 6.47992 31.9999 10.9699 31.9999 15.9999Z" fill="#FAC550"/>
<path d="M20.7776 24.0498C20.7776 24.5168 20.4046 24.8828 19.9446 24.8828H12.0576C11.5976 24.8828 11.2246 24.5158 11.2246 24.0498C11.2246 23.5898 11.5976 23.2168 12.0576 23.2168H19.9446C20.4036 23.2168 20.7776 23.5898 20.7776 24.0498Z" fill="#885645"/>
<path d="M6.23842 14.9575C5.87542 14.8995 5.62742 14.5575 5.68642 14.1935C5.74542 13.8305 6.08142 13.5815 6.45042 13.6415C10.1984 14.2435 11.3374 11.5665 11.3484 11.5395C11.4864 11.1985 11.8744 11.0345 12.2174 11.1735C12.5584 11.3125 12.7224 11.7015 12.5834 12.0425C11.8314 13.8845 9.46941 15.4765 6.23842 14.9575Z" fill="#E9B02C"/>
<path d="M19.4167 12.0407C19.2777 11.6997 19.4417 11.3107 19.7827 11.1717C20.1227 11.0327 20.5107 11.1957 20.6507 11.5347C20.7007 11.6547 21.8457 14.2357 25.5497 13.6407C25.9167 13.5807 26.2557 13.8297 26.3137 14.1927C26.3717 14.5567 26.1247 14.8987 25.7617 14.9567C22.5537 15.4727 20.1747 13.8997 19.4167 12.0407Z" fill="#E9B02C"/>
</g>
<path d="M18.9843 16.3408C19.7333 17.3626 21.0838 18.0418 22.6235 18.0418C24.1701 18.0348 25.5206 17.3556 26.2695 16.3338C26.2347 18.3147 24.6173 19.9102 22.6235 19.9102C20.6436 19.9102 19.0192 18.3217 18.9843 16.3408Z" fill="#885645"/>
<path d="M6.40036 16.3398C7.14929 17.3616 8.49977 18.0408 10.0395 18.0408C11.5861 18.0339 12.9366 17.3546 13.6855 16.3328C13.6507 18.3137 12.0333 19.9092 10.0395 19.9092C8.05857 19.9092 6.43522 18.3207 6.40036 16.3398Z" fill="#885645"/>
<defs>
<clipPath id="clip0_1142_21385">
<rect width="32" height="32" fill="white"/>
</clipPath>
</defs>
</svg>
